<svg width="110pt" height="110pt" xmlns="http://www.w3.org/2000/svg" version="1.1" viewBox="-5.0 -10.0 110.0 135.0">
 <path d="m25.715 2.0234-3.5078-2.0234-0.67188 1.168-1.0547-0.60938-5.1484 3.2578-1.168-0.67188-3.375 5.8398 1.168 0.67578v0.003906l-0.18359 0.31641-0.48828 0.84766-3.375 5.8398-0.67188 1.168 4.6719 2.6992 0.67188-1.1641 2.3359 1.3477-1.3477 2.3359 4.6758 2.6953 28.039 16.191-3.375 5.8398-2.3359-1.3477-0.85547 4.1758 1.168 0.67578 3.5078 2.0234 12.852 7.4219 3.0039 1.7344-7.0039 26.141-0.25781 5.5195 17.102 4.582 1.3984-5.2148 1.207 0.32422 3.0664-4.4141 2.6602-5.875 1.043-9.207 3.543-14.293 5.4453 3.1406 3.9375-3.957 0.10938-3.0508-4.6016-2.6562 3.3711-5.8438 1.4922-5.3672-4.6328-2.6758 0.67188-1.168-3.5039-2.0234-0.67578 1.168-59.582-34.402zm31.07 42.867-5.6484-3.2617-4.7188 8.1758 12.852 7.418 4.4492-7.7109 0.26953-0.46484-4.4609-2.5742-6.5938 5.5352-2.3359-1.3477 1.4844-2.5703z" fill-rule="evenodd"/>
<text x="0.0" y="117.5" font-size="5.0" font-weight="bold" font-family="Arbeit Regular, Helvetica, Arial-Unicode, Arial, Sans-serif" fill="#000000">Created by Ethan Go</text><text x="0.0" y="122.5" font-size="5.0" font-weight="bold" font-family="Arbeit Regular, Helvetica, Arial-Unicode, Arial, Sans-serif" fill="#000000">from Noun Project</text></svg>