<svg xmlns="http://www.w3.org/2000/svg" xmlns:xlink="http://www.w3.org/1999/xlink" width="512" height="640" xml:space="preserve" version="1.1" style="shape-rendering: geometricprecision; text-rendering: geometricprecision;" fill-rule="evenodd" clip-rule="evenodd"><rect id="backgroundrect" width="100%" height="100%" x="0" y="0" fill="none" stroke="none"/><defs><style type="text/css">
   
    .fil0 {fill:black}
   
  </style></defs><g class="currentLayer" style=""><title>Layer 1</title><g id="svg_1"><g id="svg_2"><g id="svg_3"><g id="svg_4"><path class="fil0" d="M189 387l-69 0c-4,0 -7,-3 -7,-7l0 -4c0,-9 -8,-17 -17,-17 -9,0 -17,8 -17,17l0 4c0,4 -3,7 -7,7l-65 0c-4,0 -7,-3 -7,-7l0 -191c0,-4 3,-7 7,-7l265 0c2,0 5,1 6,3 1,2 1,5 1,7l-83 191c-2,2 -4,4 -7,4zm-62 -14l57 0 77 -177 -247 0 0 177 51 0c2,-15 15,-28 31,-28 16,0 29,13 31,28z" id="svg_5"/></g><g id="svg_6"><path class="fil0" d="M83 324l-54 0c-4,0 -7,-3 -7,-7l0 -89c0,-4 3,-7 7,-7l54 0c4,0 7,3 7,7l0 89c0,4 -3,7 -7,7zm-47 -14l40 0 0 -75 -40 0 0 75z" id="svg_7"/></g><g id="svg_8"><path class="fil0" d="M173 324l-54 0c-4,0 -7,-3 -7,-7l0 -89c0,-4 3,-7 7,-7l54 0c4,0 7,3 7,7l0 89c0,4 -3,7 -7,7zm-47 -14l40 0 0 -75 -40 0 0 75z" id="svg_9"/></g><g id="svg_10"><path class="fil0" d="M210 324c-4,0 -7,-3 -7,-7l0 -89c0,-4 3,-7 7,-7l45 0c4,0 7,3 7,7 0,4 -3,7 -7,7l-38 0 0 82c0,4 -3,7 -7,7z" id="svg_11"/></g><g id="svg_12"><path class="fil0" d="M272 196l-237 0c-4,0 -7,-3 -7,-7l0 -57c0,-4 3,-7 7,-7l244 0c4,0 7,3 7,7 0,4 -3,7 -7,7l-237 0 0 43 230 0c4,0 7,3 7,7 0,4 -3,7 -7,7z" id="svg_13"/></g><g id="svg_14"><path class="fil0" d="M272 196c0,0 -1,0 -1,0 -4,-1 -6,-4 -6,-8l7 -57c1,-4 4,-6 8,-6 4,1 6,4 6,8l-7 57c0,3 -3,6 -7,6z" id="svg_15"/></g><g id="svg_16"><path class="fil0" d="M237 168c-4,0 -7,-3 -7,-7l0 -29c0,-4 3,-7 7,-7 4,0 7,3 7,7l0 29c0,4 -3,7 -7,7z" id="svg_17"/></g><g id="svg_18"><path class="fil0" d="M195 168c-4,0 -7,-3 -7,-7l0 -29c0,-4 3,-7 7,-7 4,0 7,3 7,7l0 29c0,4 -3,7 -7,7z" id="svg_19"/></g><g id="svg_20"><path class="fil0" d="M153 168c-4,0 -7,-3 -7,-7l0 -29c0,-4 3,-7 7,-7 4,0 7,3 7,7l0 29c0,4 -3,7 -7,7z" id="svg_21"/></g><g id="svg_22"><path class="fil0" d="M110 168c-4,0 -7,-3 -7,-7l0 -29c0,-4 3,-7 7,-7 4,0 7,3 7,7l0 29c0,4 -3,7 -7,7z" id="svg_23"/></g><g id="svg_24"><path class="fil0" d="M68 168c-4,0 -7,-3 -7,-7l0 -29c0,-4 3,-7 7,-7 4,0 7,3 7,7l0 29c0,4 -3,7 -7,7z" id="svg_25"/></g><g id="svg_26"><path class="fil0" d="M505 387l-65 0c-4,0 -7,-3 -7,-7l0 -4c0,-9 -8,-17 -17,-17 -9,0 -16,8 -16,17l0 4c0,4 -3,7 -7,7l-94 0c-4,0 -7,-3 -7,-7l0 -4c0,-9 -8,-17 -17,-17 -9,0 -17,8 -17,17l0 4c0,4 -3,7 -7,7l-24 0c-2,0 -5,-1 -6,-3 -1,-2 -1,-5 0,-7l84 -191c1,-2 3,-4 6,-4l194 0c4,0 7,3 7,7l0 191c0,4 -3,7 -7,7zm-58 -14l51 0 0 -177 -182 0 -78 177 6 0c2,-15 15,-28 31,-28 16,0 29,13 31,28l80 0c2,-16 14,-28 30,-28 16,0 29,13 31,28z" id="svg_27"/></g><g id="svg_28"><path class="fil0" d="M302 324l-47 0c-4,0 -7,-3 -7,-7 0,-4 3,-7 7,-7l40 0 0 -75 -1 0c-4,0 -7,-3 -7,-7 0,-4 3,-7 7,-7l8 0c4,0 7,3 7,7l0 89c0,4 -3,7 -7,7z" id="svg_29"/></g><g id="svg_30"><path class="fil0" d="M393 324l-54 0c-4,0 -7,-3 -7,-7l0 -89c0,-4 3,-7 7,-7l54 0c4,0 7,3 7,7l0 89c0,4 -3,7 -7,7zm-47 -14l40 0 0 -75 -40 0 0 75z" id="svg_31"/></g><g id="svg_32"><path class="fil0" d="M483 324l-54 0c-4,0 -7,-3 -7,-7l0 -89c0,-4 3,-7 7,-7l54 0c4,0 7,3 7,7l0 89c0,4 -3,7 -7,7zm-47 -14l40 0 0 -75 -40 0 0 75z" id="svg_33"/></g><g id="svg_34"><path class="fil0" d="M477 196l-166 0c-4,0 -7,-3 -7,-7 0,-4 3,-7 7,-7l159 0 0 -43 -111 0c-4,0 -7,-3 -7,-7 0,-4 3,-7 7,-7l118 0c4,0 7,3 7,7l0 57c0,4 -3,7 -7,7z" id="svg_35"/></g><g id="svg_36"><path class="fil0" d="M444 168c-4,0 -7,-3 -7,-7l0 -29c0,-4 3,-7 7,-7 4,0 7,3 7,7l0 29c0,4 -3,7 -7,7z" id="svg_37"/></g><g id="svg_38"><path class="fil0" d="M402 168c-4,0 -7,-3 -7,-7l0 -29c0,-4 3,-7 7,-7 4,0 7,3 7,7l0 29c0,4 -3,7 -7,7z" id="svg_39"/></g><g id="svg_40"><path class="fil0" d="M359 196c-4,0 -7,-3 -7,-7l0 -57c0,-4 3,-7 7,-7 4,0 7,3 7,7l0 57c0,4 -3,7 -7,7z" id="svg_41"/></g></g></g></g></g></svg>