<svg width="140px" height="140px" xmlns="http://www.w3.org/2000/svg" xmlns:xlink="http://www.w3.org/1999/xlink" xml:space="preserve" version="1.1" style="shape-rendering:geometricPrecision;text-rendering:geometricPrecision;image-rendering:optimizeQuality;" viewBox="0 0 512 640" x="0px" y="0px" fill-rule="evenodd" clip-rule="evenodd"><defs><style type="text/css">
   
    .fil0 {fill:black}
   
  </style></defs><g><g><g><g><path class="fil0" d="M189 387l-69 0c-4,0 -7,-3 -7,-7l0 -4c0,-9 -8,-17 -17,-17 -9,0 -17,8 -17,17l0 4c0,4 -3,7 -7,7l-65 0c-4,0 -7,-3 -7,-7l0 -191c0,-4 3,-7 7,-7l265 0c2,0 5,1 6,3 1,2 1,5 1,7l-83 191c-2,2 -4,4 -7,4zm-62 -14l57 0 77 -177 -247 0 0 177 51 0c2,-15 15,-28 31,-28 16,0 29,13 31,28z"/></g><g><path class="fil0" d="M83 324l-54 0c-4,0 -7,-3 -7,-7l0 -89c0,-4 3,-7 7,-7l54 0c4,0 7,3 7,7l0 89c0,4 -3,7 -7,7zm-47 -14l40 0 0 -75 -40 0 0 75z"/></g><g><path class="fil0" d="M173 324l-54 0c-4,0 -7,-3 -7,-7l0 -89c0,-4 3,-7 7,-7l54 0c4,0 7,3 7,7l0 89c0,4 -3,7 -7,7zm-47 -14l40 0 0 -75 -40 0 0 75z"/></g><g><path class="fil0" d="M210 324c-4,0 -7,-3 -7,-7l0 -89c0,-4 3,-7 7,-7l45 0c4,0 7,3 7,7 0,4 -3,7 -7,7l-38 0 0 82c0,4 -3,7 -7,7z"/></g><g><path class="fil0" d="M272 196l-237 0c-4,0 -7,-3 -7,-7l0 -57c0,-4 3,-7 7,-7l244 0c4,0 7,3 7,7 0,4 -3,7 -7,7l-237 0 0 43 230 0c4,0 7,3 7,7 0,4 -3,7 -7,7z"/></g><g><path class="fil0" d="M272 196c0,0 -1,0 -1,0 -4,-1 -6,-4 -6,-8l7 -57c1,-4 4,-6 8,-6 4,1 6,4 6,8l-7 57c0,3 -3,6 -7,6z"/></g><g><path class="fil0" d="M237 168c-4,0 -7,-3 -7,-7l0 -29c0,-4 3,-7 7,-7 4,0 7,3 7,7l0 29c0,4 -3,7 -7,7z"/></g><g><path class="fil0" d="M195 168c-4,0 -7,-3 -7,-7l0 -29c0,-4 3,-7 7,-7 4,0 7,3 7,7l0 29c0,4 -3,7 -7,7z"/></g><g><path class="fil0" d="M153 168c-4,0 -7,-3 -7,-7l0 -29c0,-4 3,-7 7,-7 4,0 7,3 7,7l0 29c0,4 -3,7 -7,7z"/></g><g><path class="fil0" d="M110 168c-4,0 -7,-3 -7,-7l0 -29c0,-4 3,-7 7,-7 4,0 7,3 7,7l0 29c0,4 -3,7 -7,7z"/></g><g><path class="fil0" d="M68 168c-4,0 -7,-3 -7,-7l0 -29c0,-4 3,-7 7,-7 4,0 7,3 7,7l0 29c0,4 -3,7 -7,7z"/></g><g><path class="fil0" d="M505 387l-65 0c-4,0 -7,-3 -7,-7l0 -4c0,-9 -8,-17 -17,-17 -9,0 -16,8 -16,17l0 4c0,4 -3,7 -7,7l-94 0c-4,0 -7,-3 -7,-7l0 -4c0,-9 -8,-17 -17,-17 -9,0 -17,8 -17,17l0 4c0,4 -3,7 -7,7l-24 0c-2,0 -5,-1 -6,-3 -1,-2 -1,-5 0,-7l84 -191c1,-2 3,-4 6,-4l194 0c4,0 7,3 7,7l0 191c0,4 -3,7 -7,7zm-58 -14l51 0 0 -177 -182 0 -78 177 6 0c2,-15 15,-28 31,-28 16,0 29,13 31,28l80 0c2,-16 14,-28 30,-28 16,0 29,13 31,28z"/></g><g><path class="fil0" d="M302 324l-47 0c-4,0 -7,-3 -7,-7 0,-4 3,-7 7,-7l40 0 0 -75 -1 0c-4,0 -7,-3 -7,-7 0,-4 3,-7 7,-7l8 0c4,0 7,3 7,7l0 89c0,4 -3,7 -7,7z"/></g><g><path class="fil0" d="M393 324l-54 0c-4,0 -7,-3 -7,-7l0 -89c0,-4 3,-7 7,-7l54 0c4,0 7,3 7,7l0 89c0,4 -3,7 -7,7zm-47 -14l40 0 0 -75 -40 0 0 75z"/></g><g><path class="fil0" d="M483 324l-54 0c-4,0 -7,-3 -7,-7l0 -89c0,-4 3,-7 7,-7l54 0c4,0 7,3 7,7l0 89c0,4 -3,7 -7,7zm-47 -14l40 0 0 -75 -40 0 0 75z"/></g><g><path class="fil0" d="M477 196l-166 0c-4,0 -7,-3 -7,-7 0,-4 3,-7 7,-7l159 0 0 -43 -111 0c-4,0 -7,-3 -7,-7 0,-4 3,-7 7,-7l118 0c4,0 7,3 7,7l0 57c0,4 -3,7 -7,7z"/></g><g><path class="fil0" d="M444 168c-4,0 -7,-3 -7,-7l0 -29c0,-4 3,-7 7,-7 4,0 7,3 7,7l0 29c0,4 -3,7 -7,7z"/></g><g><path class="fil0" d="M402 168c-4,0 -7,-3 -7,-7l0 -29c0,-4 3,-7 7,-7 4,0 7,3 7,7l0 29c0,4 -3,7 -7,7z"/></g><g><path class="fil0" d="M359 196c-4,0 -7,-3 -7,-7l0 -57c0,-4 3,-7 7,-7 4,0 7,3 7,7l0 57c0,4 -3,7 -7,7z"/></g></g></g></g><text x="0" y="527" fill="#000000" font-size="5px" font-weight="bold" font-family="'Helvetica Neue', Helvetica, Arial-Unicode, Arial, Sans-serif">Created by Muhammad Shabraiz</text><text x="0" y="532" fill="#000000" font-size="5px" font-weight="bold" font-family="'Helvetica Neue', Helvetica, Arial-Unicode, Arial, Sans-serif">from the Noun Project</text></svg>