<?xml version="1.0" encoding="UTF-8"?>
<svg width="80pt" height="80pt" version="1.1" viewBox="0 0 100 100" xmlns="http://www.w3.org/2000/svg">
 <path d="m73.738 73.199c0.55469-0.94141 0.89453-2.0234 0.89453-3.1953 0-3.5039-2.8398-6.3398-6.3398-6.3398-1.0156 0-1.9609 0.26172-2.8125 0.68359-0.5625-2.9258-3.1289-5.1406-6.2188-5.1406-3.5039 0-6.3398 2.8359-6.3398 6.3398 0 0.035156 0.011719 0.070313 0.011719 0.10938-0.39844-0.066406-0.80859-0.10938-1.2266-0.10938-2.5391 0-4.7773 1.2578-6.1445 3.1719l-2.7109 16.504c1.7734-0.046875 3.3477-0.84766 4.4297-2.1055 1.2461 0.89453 2.7734 1.4258 4.4258 1.4258 1.7031 0 3.2734-0.56641 4.543-1.5117 1.3789 1.3633 3.2695 2.2031 5.3594 2.2031 2.4258 0 4.5781-1.1328 5.9766-2.8945 1.0664 1.7305 2.9688 2.8945 5.1523 2.8945 3.3555 0 6.0703-2.7188 6.0703-6.0703 0.007812-3.0078-2.1914-5.4883-5.0703-5.9648z"/>
 <path d="m23.297 70.051c9.125 0 16.523 7.3945 16.523 16.523l8.1445-49.574c0-6.457-5.2344-11.691-11.691-11.691-3.6836 0-6.9688 1.7031-9.1094 4.3633l-16.742 46.547c3.0273-3.7617 7.6719-6.168 12.875-6.168z"/>
 <path d="m23.297 72.828c-4.1836 0-8.0898 1.8711-10.715 5.1328-0.54297 0.67578-1.3477 1.0352-2.1641 1.0352-0.46484 0-0.92969-0.11328-1.3594-0.35547-1.1836-0.66406-1.7148-2.0859-1.2539-3.3633l13.086-36.383h-20.102v61.105s21.516-0.007812 22.219-0.007812c7.6719 0 13.887-6.2188 13.887-13.887 0-1.3125-0.19531-2.582-0.53516-3.7852-1.793-5.5-6.9688-9.4922-13.062-9.4922z"/>
 <path d="m83.359 53.352c0.74219-0.17187 1.4922 0.29688 1.6641 1.043 0.039062 0.17969 3.5586 15.461 6.6719 23.984h7.5156s-7.0977-25.645-8.3594-34.453c-1.375-9.5977-7.6211-17.621-17.004-18.375l-5.1836-25.551h-8.5039l5.4336 26.785c-6.8164 2.7109-11.645 9.3555-11.645 17.141 0 2.9258 0.96484 7.8398 2.2383 13.055 0.96484-0.34766 1.9961-0.55078 3.0781-0.55078 1.7461 0 3.3906 0.50781 4.793 1.3828-0.38281-1.582-0.62109-2.6211-0.66016-2.8008-0.17188-0.74609 0.29687-1.4922 1.043-1.6641s1.4922 0.29688 1.6641 1.043c0.015625 0.074219 0.64062 2.7852 1.5898 6.5312 0.19922-0.015625 0.39844-0.039063 0.60156-0.039063 2.75 0 5.2109 1.2305 6.8867 3.1602-1.2578-4.832-2.1406-8.668-2.2227-9.0312-0.17188-0.74609 0.29687-1.4922 1.043-1.6641s1.4922 0.29688 1.6641 1.043c0.039062 0.17969 3.5625 15.461 6.6719 23.984h6.4102c-3.0742-8.7773-6.2695-22.66-6.4297-23.363-0.17578-0.74609 0.28906-1.4922 1.0391-1.6602z"/>
</svg>
