<svg width="840.380029296875px" height="120.79997253417969px" xmlns="http://www.w3.org/2000/svg" viewBox="-170.1900146484375 14.600013732910156 840.380029296875 120.79997253417969" style="background: rgba(0, 0, 0, 0);" preserveAspectRatio="xMidYMid"><defs><filter id="editing-jagged" x="-100%" y="-100%" width="300%" height="300%"><feTurbulence result="turb" baseFrequency="0.1" numOctaves="1" seed="1"></feTurbulence><feDisplacementMap in="SourceGraphic" in2="turb" scale="10"></feDisplacementMap></filter></defs><g filter="url(#editing-jagged)"><g transform="translate(-51.21497651934624, 99.00000190734863)"><path d="M0.45-0.32L0.45-0.32L8.51-42.24L8.51-42.24Q16.06-42.88 20.93-42.88L20.93-42.88L20.93-42.88Q25.79-42.88 28.93-42.46L28.93-42.46L28.93-42.46Q32.06-42.05 34.18-40.96L34.18-40.96L34.18-40.96Q38.40-38.91 38.40-33.28L38.40-33.28L38.40-33.28Q38.40-30.02 35.58-27.26L35.58-27.26L35.58-27.26Q32.96-24.77 30.08-24.19L30.08-24.19L30.08-24.19Q33.15-23.68 35.33-21.38L35.33-21.38L35.33-21.38Q37.63-18.94 37.63-15.17L37.63-15.17L37.63-15.17Q37.63-7.87 32.19-3.62L32.19-3.62L32.19-3.62Q26.75 0.64 16.06 0.64L16.06 0.64L16.06 0.64Q8.70 0.64 0.45-0.32ZM17.86-20.61L14.66-4.03L14.66-4.03Q15.23-3.97 15.36-3.97L15.36-3.97L15.94-3.97L15.94-3.97Q21.18-3.97 23.42-7.42L23.42-7.42L23.42-7.42Q25.09-10.11 25.09-15.04L25.09-15.04L25.09-15.04Q25.09-17.66 23.39-19.07L23.39-19.07L23.39-19.07Q21.70-20.48 17.86-20.61L17.86-20.61ZM27.58-33.22L27.58-33.22L27.58-33.22Q27.58-38.53 22.46-38.53L22.46-38.53L21.89-38.53L21.89-38.53Q21.63-38.53 21.25-38.46L21.25-38.46L18.69-24.96L19.33-24.96L19.33-24.96Q27.58-25.15 27.58-33.22ZM57.15-3.52L57.15-3.52L57.15-3.52Q55.17 1.28 48.83 1.28L48.83 1.28L48.83 1.28Q45.63 1.28 43.58-0.96L43.58-0.96L43.58-0.96Q41.92-2.82 41.92-4.93L41.92-4.93L41.92-4.93Q41.92-9.73 44.16-20.22L44.16-20.22L48.83-44.80L61.82-46.08L55.62-13.70L55.62-13.70Q54.53-8.96 54.53-7.30L54.53-7.30L54.53-7.30Q54.53-3.65 57.15-3.52ZM65.38-1.92L65.38-1.92L65.38-1.92Q63.87-3.58 63.20-6.21L63.20-6.21L63.20-6.21Q62.53-8.83 62.53-13.12L62.53-13.12L62.53-13.12Q62.53-17.41 64-21.31L64-21.31L64-21.31Q65.47-25.22 68.16-28.03L68.16-28.03L68.16-28.03Q73.66-33.92 82.75-33.92L82.75-33.92L82.75-33.92Q86.02-33.92 88.38-32.83L88.38-32.83L99.33-33.92L94.59-8.96L94.59-8.96Q94.40-8.19 94.40-6.78L94.40-6.78L94.40-6.78Q94.40-5.38 95.26-4.48L95.26-4.48L95.26-4.48Q96.13-3.58 97.41-3.46L97.41-3.46L97.41-3.46Q96.77-1.28 94.43 0L94.43 0L94.43 0Q92.10 1.28 89.47 1.28L89.47 1.28L89.47 1.28Q86.85 1.28 85.09 0.29L85.09 0.29L85.09 0.29Q83.33-0.70 82.82-2.37L82.82-2.37L82.82-2.37Q81.79-0.77 79.62 0.26L79.62 0.26L79.62 0.26Q77.44 1.28 74.53 1.28L74.53 1.28L74.53 1.28Q71.62 1.28 69.25 0.51L69.25 0.51L69.25 0.51Q66.88-0.26 65.38-1.92ZM78.88-27.90L78.88-27.90L78.88-27.90Q78.14-26.75 77.50-24.80L77.50-24.80L77.50-24.80Q76.86-22.85 75.81-17.63L75.81-17.63L75.81-17.63Q74.75-12.42 74.75-8.70L74.75-8.70L74.75-8.70Q74.75-4.99 75.33-3.90L75.33-3.90L75.33-3.90Q75.90-2.82 76.93-2.82L76.93-2.82L76.93-2.82Q78.98-2.82 80.48-4.77L80.48-4.77L80.48-4.77Q81.98-6.72 82.56-10.18L82.56-10.18L85.95-28.93L85.95-28.93Q84.61-30.08 83.04-30.08L83.04-30.08L83.04-30.08Q81.47-30.08 80.54-29.57L80.54-29.57L80.54-29.57Q79.62-29.06 78.88-27.90ZM133.95-26.62L133.95-26.62L133.95-26.62Q133.95-23.94 131.71-22.27L131.71-22.27L131.71-22.27Q129.47-20.61 125.82-20.61L125.82-20.61L125.82-20.61Q124.29-20.61 123.39-21.06L123.39-21.06L123.39-21.06Q124.10-22.72 124.32-24.80L124.32-24.80L124.32-24.80Q124.54-26.88 124.54-27.46L124.54-27.46L124.54-27.46Q124.54-30.14 122.69-30.14L122.69-30.14L122.69-30.14Q121.41-30.14 119.97-28.54L119.97-28.54L119.97-28.54Q118.53-26.94 117.31-24.45L117.31-24.45L117.31-24.45Q114.62-18.69 114.62-12.86L114.62-12.86L114.62-12.86Q114.62-9.66 115.84-8.22L115.84-8.22L115.84-8.22Q117.06-6.78 119.74-6.78L119.74-6.78L119.74-6.78Q123.46-6.78 126.40-9.86L126.40-9.86L126.40-9.86Q127.23-10.82 127.68-11.90L127.68-11.90L127.68-11.90Q130.11-10.62 130.11-7.10L130.11-7.10L130.11-7.10Q130.11-3.52 126.14-1.15L126.14-1.15L126.14-1.15Q122.05 1.28 115.52 1.28L115.52 1.28L115.52 1.28Q102.53 1.28 102.53-12.48L102.53-12.48L102.53-12.48Q102.53-22.53 108.22-28.29L108.22-28.29L108.22-28.29Q113.73-33.92 123.84-33.92L123.84-33.92L123.84-33.92Q133.95-33.92 133.95-26.62ZM152.19-30.34L152.19-30.34L152.19-30.34Q155.65-33.92 162.94-33.92L162.94-33.92L162.94-33.92Q166.98-33.92 169.18-31.78L169.18-31.78L169.18-31.78Q171.39-29.63 171.39-25.70L171.39-25.70L171.39-25.70Q171.39-21.76 169.18-18.98L169.18-18.98L169.18-18.98Q166.98-16.19 162.88-15.04L162.88-15.04L162.88-15.04Q163.20-13.76 163.65-12.42L163.65-12.42L164.54-9.86L164.54-9.86Q165.76-6.59 166.72-5.44L166.72-5.44L166.72-5.44Q167.68-4.29 168.96-3.90L168.96-3.90L168.96-3.90Q168.26-1.28 165.70 0.13L165.70 0.13L165.70 0.13Q163.65 1.28 160.83 1.28L160.83 1.28L160.83 1.28Q152.58 1.28 151.49-11.46L151.49-11.46L151.49-11.46Q151.30-13.25 151.30-15.04L151.30-15.04L151.30-15.04Q154.50-15.94 156.74-18.94L156.74-18.94L156.74-18.94Q158.98-21.95 158.98-25.47L158.98-25.47L158.98-25.47Q158.98-28.99 156.48-28.99L156.48-28.99L156.48-28.99Q154.69-28.99 153.28-27.01L153.28-27.01L153.28-27.01Q151.87-25.02 151.23-21.63L151.23-21.63L147.01 0L134.08 1.28L143.04-44.80L155.90-46.08L154.43-38.46L154.43-38.46Q153.47-33.09 152.19-30.34ZM189.12-39.68L189.12-39.68L189.12-39.68Q190.98-43.52 196.13-43.52L196.13-43.52L196.13-43.52Q201.28-43.52 203.68-40.54L203.68-40.54L203.68-40.54Q206.08-37.57 206.08-30.72L206.08-30.72L206.08-7.87L221.63-42.18L229.25-42.18L209.34 0L194.37 0L192.45-30.72L192.45-30.72Q192.26-34.11 191.33-36.42L191.33-36.42L191.33-36.42Q190.40-38.72 189.12-39.68ZM251.58-10.82L251.58-10.82L251.58-10.82Q253.18-9.73 253.18-7.33L253.18-7.33L253.18-7.33Q253.18-4.93 251.97-3.39L251.97-3.39L251.97-3.39Q250.75-1.86 248.77-0.83L248.77-0.83L248.77-0.83Q244.67 1.28 240.26 1.28L240.26 1.28L240.26 1.28Q235.84 1.28 233.25 0.32L233.25 0.32L233.25 0.32Q230.66-0.64 228.93-2.43L228.93-2.43L228.93-2.43Q225.54-5.82 225.54-12.03L225.54-12.03L225.54-12.03Q225.54-21.70 230.78-27.58L230.78-27.58L230.78-27.58Q236.42-33.92 246.21-33.92L246.21-33.92L246.21-33.92Q252.29-33.92 255.30-31.36L255.30-31.36L255.30-31.36Q257.54-29.44 257.54-26.30L257.54-26.30L257.54-26.30Q257.54-15.04 238.08-15.04L238.08-15.04L238.08-15.04Q237.82-13.38 237.82-11.97L237.82-11.97L237.82-11.97Q237.82-9.02 239.14-7.90L239.14-7.90L239.14-7.90Q240.45-6.78 242.88-6.78L242.88-6.78L242.88-6.78Q245.31-6.78 247.90-7.90L247.90-7.90L247.90-7.90Q250.50-9.02 251.58-10.82ZM238.53-17.79L238.53-17.79L238.53-17.79Q243.07-17.79 245.70-20.61L245.70-20.61L245.70-20.61Q248.32-23.30 248.32-27.58L248.32-27.58L248.32-27.58Q248.32-29.06 247.78-29.86L247.78-29.86L247.78-29.86Q247.23-30.66 246.14-30.66L246.14-30.66L246.14-30.66Q245.06-30.66 244.13-30.24L244.13-30.24L244.13-30.24Q243.20-29.82 242.24-28.42L242.24-28.42L242.24-28.42Q239.87-25.22 238.53-17.79ZM275.07-3.52L275.07-3.52L275.07-3.52Q273.09 1.28 266.75 1.28L266.75 1.28L266.75 1.28Q263.49 1.28 261.44-0.96L261.44-0.96L261.44-0.96Q259.71-2.94 259.71-4.93L259.71-4.93L259.71-4.93Q259.71-10.11 262.08-20.22L262.08-20.22L264.45-32.64L277.44-33.92L273.54-13.70L273.54-13.70Q272.45-8.96 272.45-7.30L272.45-7.30L272.45-7.30Q272.45-3.65 275.07-3.52ZM265.60-41.54L265.60-41.54L265.60-41.54Q265.60-44.03 267.68-45.38L267.68-45.38L267.68-45.38Q269.76-46.72 272.77-46.72L272.77-46.72L272.77-46.72Q275.78-46.72 277.60-45.38L277.60-45.38L277.60-45.38Q279.42-44.03 279.42-41.54L279.42-41.54L279.42-41.54Q279.42-39.04 277.41-37.76L277.41-37.76L277.41-37.76Q275.39-36.48 272.38-36.48L272.38-36.48L272.38-36.48Q269.38-36.48 267.49-37.76L267.49-37.76L267.49-37.76Q265.60-39.04 265.60-41.54ZM295.81-3.52L295.81-3.52L295.81-3.52Q293.82 1.28 287.49 1.28L287.49 1.28L287.49 1.28Q284.29 1.28 282.24-0.96L282.24-0.96L282.24-0.96Q280.58-2.82 280.58-4.93L280.58-4.93L280.58-4.93Q280.58-9.73 282.82-20.22L282.82-20.22L287.49-44.80L300.48-46.08L294.27-13.70L294.27-13.70Q293.18-8.96 293.18-7.30L293.18-7.30L293.18-7.30Q293.18-3.65 295.81-3.52ZM339.39-29.57L339.39-29.57L339.39-29.57Q340.35-31.49 340.35-33.28L340.35-33.28L340.35-33.28Q340.35-35.07 340.16-36.06L340.16-36.06L340.16-36.06Q339.97-37.06 339.52-37.82L339.52-37.82L339.52-37.82Q338.56-39.49 336.64-39.49L336.64-39.49L336.64-39.49Q334.27-39.49 332.35-37.76L332.35-37.76L332.35-37.76Q330.30-35.97 330.30-33.15L330.30-33.15L330.30-33.15Q330.30-31.36 331.55-29.98L331.55-29.98L331.55-29.98Q332.80-28.61 334.72-27.33L334.72-27.33L334.72-27.33Q336.64-26.05 338.82-24.77L338.82-24.77L338.82-24.77Q340.99-23.49 342.91-21.95L342.91-21.95L342.91-21.95Q347.33-18.43 347.33-13.70L347.33-13.70L347.33-13.70Q347.33-10.50 345.63-7.78L345.63-7.78L345.63-7.78Q343.94-5.06 341.12-3.07L341.12-3.07L341.12-3.07Q334.98 1.28 326.85 1.28L326.85 1.28L326.85 1.28Q320.26 1.28 316.86-0.86L316.86-0.86L316.86-0.86Q313.47-3.01 313.47-6.27L313.47-6.27L313.47-6.27Q313.47-12.10 318.02-13.57L318.02-13.57L318.02-13.57Q319.30-14.02 321.25-14.02L321.25-14.02L321.25-14.02Q323.20-14.02 325.44-13.18L325.44-13.18L325.44-13.18Q324.42-10.56 324.42-8.19L324.42-8.19L324.42-8.19Q324.42-3.07 328.06-3.07L328.06-3.07L328.06-3.07Q330.43-3.07 332.38-4.80L332.38-4.80L332.38-4.80Q334.34-6.53 334.34-8.48L334.34-8.48L334.34-8.48Q334.34-10.43 333.09-11.84L333.09-11.84L333.09-11.84Q331.84-13.25 329.98-14.37L329.98-14.37L329.98-14.37Q328.13-15.49 325.98-16.58L325.98-16.58L325.98-16.58Q323.84-17.66 321.98-19.20L321.98-19.20L321.98-19.20Q317.63-22.72 317.63-28.35L317.63-28.35L317.63-28.35Q317.63-32 319.42-34.85L319.42-34.85L319.42-34.85Q321.22-37.70 324.10-39.62L324.10-39.62L324.10-39.62Q329.86-43.52 336.93-43.52L336.93-43.52L336.93-43.52Q344.00-43.52 347.42-41.41L347.42-41.41L347.42-41.41Q350.85-39.30 350.85-35.71L350.85-35.71L350.85-35.71Q350.85-32.58 348.42-30.59L348.42-30.59L348.42-30.59Q346.30-28.93 343.74-28.93L343.74-28.93L343.74-28.93Q341.18-28.93 339.39-29.57ZM366.14 1.28L366.14 1.28L366.14 1.28Q352.06 1.28 352.06-11.97L352.06-11.97L352.06-11.97Q352.06-21.38 357.25-27.46L357.25-27.46L357.25-27.46Q362.75-33.92 372.29-33.92L372.29-33.92L372.29-33.92Q379.20-33.92 382.72-30.72L382.72-30.72L382.72-30.72Q386.24-27.52 386.24-20.80L386.24-20.80L386.24-20.80Q386.24-10.56 380.74-4.61L380.74-4.61L380.74-4.61Q375.36 1.28 366.14 1.28ZM367.81-26.56L367.81-26.56L367.81-26.56Q367.04-24.83 366.43-22.24L366.43-22.24L366.43-22.24Q365.82-19.65 365.06-15.55L365.06-15.55L365.06-15.55Q364.29-11.46 364.29-6.40L364.29-6.40L364.29-6.40Q364.29-4.74 364.83-3.65L364.83-3.65L364.83-3.65Q365.38-2.56 366.85-2.56L366.85-2.56L366.85-2.56Q368.32-2.56 369.25-3.26L369.25-3.26L369.25-3.26Q370.18-3.97 370.88-5.63L370.88-5.63L370.88-5.63Q372.16-8.58 373.18-14.05L373.18-14.05L373.18-14.05Q374.21-19.52 374.30-21.89L374.30-21.89L374.30-21.89Q374.40-24.26 374.40-26.02L374.40-26.02L374.40-26.02Q374.40-27.78 373.89-28.93L373.89-28.93L373.89-28.93Q373.38-30.08 371.94-30.08L371.94-30.08L371.94-30.08Q370.50-30.08 369.54-29.18L369.54-29.18L369.54-29.18Q368.58-28.29 367.81-26.56ZM405.31-3.52L405.31-3.52L405.31-3.52Q403.33 1.28 396.99 1.28L396.99 1.28L396.99 1.28Q393.79 1.28 391.74-0.96L391.74-0.96L391.74-0.96Q390.08-2.82 390.08-4.93L390.08-4.93L390.08-4.93Q390.08-9.73 392.32-20.22L392.32-20.22L396.99-44.80L409.98-46.08L403.78-13.70L403.78-13.70Q402.69-8.96 402.69-7.30L402.69-7.30L402.69-7.30Q402.69-3.65 405.31-3.52ZM431.30-2.69L431.30-2.69L431.30-2.69Q428.22 1.28 420.61 1.28L420.61 1.28L420.61 1.28Q416.64 1.28 413.76-1.12L413.76-1.12L413.76-1.12Q410.88-3.52 410.88-6.98L410.88-6.98L410.88-6.98Q410.88-8.90 411.07-9.86L411.07-9.86L415.36-32.64L428.35-33.92L423.68-9.22L423.68-9.22Q423.42-7.81 423.42-6.98L423.42-6.98L423.42-6.98Q423.42-3.26 425.66-3.26L425.66-3.26L425.66-3.26Q428.16-3.26 429.95-6.66L429.95-6.66L429.95-6.66Q430.53-7.74 430.78-9.15L430.78-9.15L435.33-32.64L447.94-33.92L443.20-8.96L443.20-8.96Q443.01-8 443.01-6.98L443.01-6.98L443.01-6.98Q443.01-5.95 443.58-4.83L443.58-4.83L443.58-4.83Q444.16-3.71 446.02-3.46L446.02-3.46L446.02-3.46Q445.63-1.92 444.29-0.90L444.29-0.90L444.29-0.90Q441.47 1.28 438.43 1.28L438.43 1.28L438.43 1.28Q435.39 1.28 433.60 0.19L433.60 0.19L433.60 0.19Q431.81-0.90 431.30-2.69ZM452.42-6.40L452.42-6.40L452.42-6.40Q452.42-8.13 453.31-12.48L453.31-12.48L456.70-29.76L452.93-29.76L453.18-31.68L453.18-31.68Q460.86-33.98 468.29-39.62L468.29-39.62L471.36-39.62L469.82-32.64L474.82-32.64L474.24-29.76L469.31-29.76L466.05-12.48L466.05-12.48Q465.22-8.51 465.22-7.17L465.22-7.17L465.22-7.17Q465.22-4.10 467.90-3.46L467.90-3.46L467.90-3.46Q467.26-1.28 464.96 0L464.96 0L464.96 0Q462.66 1.28 459.39 1.28L459.39 1.28L459.39 1.28Q456.13 1.28 454.27-0.77L454.27-0.77L454.27-0.77Q452.42-2.82 452.42-6.40ZM489.86-3.52L489.86-3.52L489.86-3.52Q487.87 1.28 481.54 1.28L481.54 1.28L481.54 1.28Q478.27 1.28 476.22-0.96L476.22-0.96L476.22-0.96Q474.50-2.94 474.50-4.93L474.50-4.93L474.50-4.93Q474.50-10.11 476.86-20.22L476.86-20.22L479.23-32.64L492.22-33.92L488.32-13.70L488.32-13.70Q487.23-8.96 487.23-7.30L487.23-7.30L487.23-7.30Q487.23-3.65 489.86-3.52ZM480.38-41.54L480.38-41.54L480.38-41.54Q480.38-44.03 482.46-45.38L482.46-45.38L482.46-45.38Q484.54-46.72 487.55-46.72L487.55-46.72L487.55-46.72Q490.56-46.72 492.38-45.38L492.38-45.38L492.38-45.38Q494.21-44.03 494.21-41.54L494.21-41.54L494.21-41.54Q494.21-39.04 492.19-37.76L492.19-37.76L492.19-37.76Q490.18-36.48 487.17-36.48L487.17-36.48L487.17-36.48Q484.16-36.48 482.27-37.76L482.27-37.76L482.27-37.76Q480.38-39.04 480.38-41.54ZM509.25 1.28L509.25 1.28L509.25 1.28Q495.17 1.28 495.17-11.97L495.17-11.97L495.17-11.97Q495.17-21.38 500.35-27.46L500.35-27.46L500.35-27.46Q505.86-33.92 515.39-33.92L515.39-33.92L515.39-33.92Q522.30-33.92 525.82-30.72L525.82-30.72L525.82-30.72Q529.34-27.52 529.34-20.80L529.34-20.80L529.34-20.80Q529.34-10.56 523.84-4.61L523.84-4.61L523.84-4.61Q518.46 1.28 509.25 1.28ZM510.91-26.56L510.91-26.56L510.91-26.56Q510.14-24.83 509.54-22.24L509.54-22.24L509.54-22.24Q508.93-19.65 508.16-15.55L508.16-15.55L508.16-15.55Q507.39-11.46 507.39-6.40L507.39-6.40L507.39-6.40Q507.39-4.74 507.94-3.65L507.94-3.65L507.94-3.65Q508.48-2.56 509.95-2.56L509.95-2.56L509.95-2.56Q511.42-2.56 512.35-3.26L512.35-3.26L512.35-3.26Q513.28-3.97 513.98-5.63L513.98-5.63L513.98-5.63Q515.26-8.58 516.29-14.05L516.29-14.05L516.29-14.05Q517.31-19.52 517.41-21.89L517.41-21.89L517.41-21.89Q517.50-24.26 517.50-26.02L517.50-26.02L517.50-26.02Q517.50-27.78 516.99-28.93L516.99-28.93L516.99-28.93Q516.48-30.08 515.04-30.08L515.04-30.08L515.04-30.08Q513.60-30.08 512.64-29.18L512.64-29.18L512.64-29.18Q511.68-28.29 510.91-26.56ZM560.19 1.28L560.19 1.28L560.19 1.28Q552.45 1.28 552.45-4.74L552.45-4.74L552.45-4.74Q552.51-6.40 553.02-9.22L553.02-9.22L554.18-15.10L554.18-15.10Q555.90-23.42 555.90-25.28L555.90-25.28L555.90-25.28Q555.90-28.99 553.73-28.99L553.73-28.99L553.73-28.99Q550.08-28.99 548.16-19.46L548.16-19.46L544.38 0L531.52 1.28L538.18-32.70L548.67-33.92L547.65-27.65L547.65-27.65Q550.66-33.92 559.87-33.92L559.87-33.92L559.87-33.92Q564.35-33.92 566.24-32.03L566.24-32.03L566.24-32.03Q568.13-30.14 568.13-25.92L568.13-25.92L568.13-25.92Q568.13-21.95 566.08-12.67L566.08-12.67L566.08-12.67Q565.12-8.51 565.12-6.94L565.12-6.94L565.12-6.94Q565.12-5.38 565.98-4.48L565.98-4.48L565.98-4.48Q566.85-3.58 568.13-3.46L568.13-3.46L568.13-3.46Q567.49-1.28 565.28 0L565.28 0L565.28 0Q563.07 1.28 560.19 1.28ZM592.38-22.46L592.38-22.46L592.38-22.46Q593.28-24.83 593.28-26.88L593.28-26.88L593.28-26.88Q593.28-30.66 590.21-30.66L590.21-30.66L590.21-30.66Q588.61-30.66 587.30-29.22L587.30-29.22L587.30-29.22Q585.98-27.78 585.98-25.98L585.98-25.98L585.98-25.98Q585.98-24.70 587.01-23.68L587.01-23.68L587.01-23.68Q588.48-22.27 592.26-19.97L592.26-19.97L592.26-19.97Q596.03-17.66 597.47-15.78L597.47-15.78L597.47-15.78Q598.91-13.89 598.91-11.30L598.91-11.30L598.91-11.30Q598.91-8.70 597.66-6.34L597.66-6.34L597.66-6.34Q596.42-3.97 594.18-2.30L594.18-2.30L594.18-2.30Q589.38 1.28 581.70 1.28L581.70 1.28L581.70 1.28Q577.54 1.28 574.34-0.90L574.34-0.90L574.34-0.90Q571.14-3.01 571.14-5.50L571.14-5.50L571.14-5.50Q571.14-8 572.96-9.47L572.96-9.47L572.96-9.47Q574.78-10.94 577.47-10.94L577.47-10.94L577.47-10.94Q580.16-10.94 581.82-9.92L581.82-9.92L581.82-9.92Q580.99-7.81 580.99-6.40L580.99-6.40L580.99-6.40Q580.99-2.18 584.58-2.18L584.58-2.18L584.58-2.18Q586.11-2.18 587.14-3.14L587.14-3.14L587.14-3.14Q588.16-4.10 588.16-5.76L588.16-5.76L588.16-5.76Q588.16-9.02 582.66-12.48L582.66-12.48L582.66-12.48Q578.18-15.42 577.15-16.58L577.15-16.58L577.15-16.58Q575.42-18.62 575.42-21.18L575.42-21.18L575.42-21.18Q575.42-23.74 576.64-26.18L576.64-26.18L576.64-26.18Q577.86-28.61 580.10-30.34L580.10-30.34L580.10-30.34Q584.77-33.92 592.90-33.92L592.90-33.92L592.90-33.92Q597.06-33.92 599.52-32.26L599.52-32.26L599.52-32.26Q601.98-30.59 601.98-27.78L601.98-27.78L601.98-27.78Q601.98-24.96 600.29-23.36L600.29-23.36L600.29-23.36Q598.59-21.76 595.52-21.76L595.52-21.76L595.52-21.76Q593.41-21.76 592.38-22.46Z" fill="#444"></path></g></g><style>text {
  font-size: 64px;
  font-family: Arial Black;
  dominant-baseline: central;
  text-anchor: middle;
}</style></svg>